<svg width="33" height="27" viewBox="0 0 33 27" fill="none" xmlns="http://www.w3.org/2000/svg">
<path d="M25.6971 3.14163C25.6971 2.01602 24.7846 1.10352 23.659 1.10352H5C2.79086 1.10352 1 2.89438 1 5.10352V17.7244C1 19.9335 2.79086 21.7244 5 21.7244H7.4337V24.4449C7.4337 25.3548 8.55025 25.7919 9.16796 25.1237L9.93561 24.2934C11.4499 22.6556 13.5791 21.7244 15.8097 21.7244H21.6971C23.9062 21.7244 25.6971 19.9335 25.6971 17.7244V16.5692" stroke="#EA115F" stroke-width="2"/>
<path d="M7.27344 6.61914H19.1805" stroke="#EA115F" stroke-width="2" stroke-linecap="round" stroke-linejoin="round"/>
<path d="M7.27344 11.6543H15.3441" stroke="#EA115F" stroke-width="2" stroke-linecap="round" stroke-linejoin="round"/>
<path d="M7.27344 16.4082H11.0281" stroke="#EA115F" stroke-width="2" stroke-linecap="round" stroke-linejoin="round"/>
<path d="M27.3341 5.28012C28.0331 4.58111 29.1665 4.58111 29.8655 5.28012C30.5645 5.97914 30.5645 7.11246 29.8655 7.81147L22.4836 15.1934C21.9521 15.7249 21.2403 16.0376 20.4893 16.0694L18.8828 16.1374L19.0148 14.5969C19.0752 13.8923 19.3825 13.2318 19.8826 12.7317L27.3341 5.28012Z" stroke="#EA115F" stroke-width="2"/>
<path d="M25.7422 7.13867L28.1358 9.53232" stroke="#EA115F" stroke-width="2"/>
</svg>
