<svg width="20" height="20" viewBox="0 0 20 20" fill="none" xmlns="http://www.w3.org/2000/svg">
<path fill-rule="evenodd" clip-rule="evenodd" d="M13.0498 1.8748C13.0498 1.48821 13.3632 1.1748 13.7498 1.1748H18.1248C18.5114 1.1748 18.8248 1.48821 18.8248 1.8748V6.2498C18.8248 6.6364 18.5114 6.9498 18.1248 6.9498C17.7382 6.9498 17.4248 6.6364 17.4248 6.2498V3.56475L12.9948 7.99478C12.7214 8.26815 12.2782 8.26815 12.0048 7.99478C11.7315 7.72141 11.7315 7.2782 12.0048 7.00483L16.4349 2.5748H13.7498C13.3632 2.5748 13.0498 2.2614 13.0498 1.8748ZM3.179 3.179C3.66191 2.6961 4.31687 2.4248 4.9998 2.4248H10.6248C11.0114 2.4248 11.3248 2.73821 11.3248 3.1248C11.3248 3.5114 11.0114 3.8248 10.6248 3.8248H4.9998C4.68818 3.8248 4.38931 3.9486 4.16895 4.16895C3.9486 4.38931 3.8248 4.68818 3.8248 4.9998V14.9998C3.8248 15.3114 3.9486 15.6103 4.16895 15.8307C4.38931 16.051 4.68818 16.1748 4.9998 16.1748H14.9998C15.3114 16.1748 15.6103 16.051 15.8307 15.8307C16.051 15.6103 16.1748 15.3114 16.1748 14.9998V9.3748C16.1748 8.9882 16.4882 8.6748 16.8748 8.6748C17.2614 8.6748 17.5748 8.9882 17.5748 9.3748V14.9998C17.5748 15.6827 17.3035 16.3377 16.8206 16.8206C16.3377 17.3035 15.6827 17.5748 14.9998 17.5748H4.9998C4.31687 17.5748 3.66191 17.3035 3.179 16.8206C2.6961 16.3377 2.4248 15.6827 2.4248 14.9998V4.9998C2.4248 4.31687 2.6961 3.66191 3.179 3.179Z" fill="#535358"/>
</svg>
