<svg width="12" height="34" viewBox="0 0 12 34" fill="none" xmlns="http://www.w3.org/2000/svg">
<path d="M11.2369 5.61847C11.2369 4.12836 10.645 2.69927 9.59137 1.64561C8.5377 0.591943 7.10858 0 5.61847 0C4.12836 0 2.69928 0.591943 1.64561 1.64561C0.591943 2.69927 0 4.12836 0 5.61847V22.6081L4.62697 25.9235V34H6.60996V25.9235L11.2369 22.6081V5.61847ZM9.25395 15.1203L6.60996 17.7643V15.2855L9.25395 12.6416V15.1203ZM2.0243 12.6416L4.66829 15.2855V17.7643L2.0243 15.1203V12.6416ZM9.25395 9.83232L5.61847 13.4678L1.98299 9.7497V7.27096L5.61847 10.9064L9.25395 7.27096V9.83232ZM5.61847 1.98299C6.41802 1.98652 7.19436 2.25207 7.82857 2.73893C8.46282 3.2258 8.91994 3.90714 9.13001 4.67862L5.61847 8.17983L2.10693 4.67862C2.30929 3.89947 2.76314 3.20888 3.39807 2.71402C4.033 2.21915 4.81349 1.94766 5.61847 1.94167V1.98299ZM1.98299 21.6063V17.8882L4.62697 20.5322V23.486L1.98299 21.6063ZM6.60996 23.4964V20.5322L9.25395 17.8882V21.596L6.60996 23.4964Z" fill="white"/>
</svg>
