<svg width="38" height="38" viewBox="0 0 38 38" fill="none" xmlns="http://www.w3.org/2000/svg">
<path d="M0.107763 14.5028C0.0466872 9.01014 -0.129652 7.11174 1.2953 4.83817C3.60101 1.15939 6.45496 0.272646 8.23718 0.000790251L27.5221 0.000791663C32.3604 -0.0551584 35.2589 2.87318 35.2589 2.87318C38 5.89666 38 9.10153 38 9.10153V23.0121C38 28.0878 37.909 28.3605 37.909 28.3605C37.909 28.3605 37.909 32.3517 34.345 35.405C31.784 37.5996 29.3115 37.7126 23.6293 37.5513H14.9078C10.2436 37.4401 8.47651 38.0146 5.09347 36.2913C1.8413 34.634 0.556876 32.2694 0.107763 28.5108C-0.134704 26.4823 0.107763 28.1241 0.107763 23.0484V14.5028Z" fill="url(#paint0_linear_7738_788)"/>
<path d="M15.5086 11.2421L14.1993 12.1266C14.096 12.2304 14.0639 12.2946 14.1993 12.3902L14.327 12.494L16.0734 13.714C16.0734 13.714 17.8074 12.7722 18.1775 12.6133C18.8297 12.3208 19.5359 12.1711 20.25 12.1744C20.734 12.207 21.2143 12.2795 21.686 12.392C22.2885 12.5655 22.8588 12.8347 23.3764 13.1897L23.8681 13.5166C23.8865 13.5349 23.9081 13.5496 23.932 13.5602C23.9563 13.5708 23.982 13.5759 24.0081 13.5759C24.0344 13.5759 24.0605 13.5704 24.0849 13.5602C24.1088 13.5496 24.1299 13.5349 24.1483 13.5166C24.1684 13.5019 24.1845 13.483 24.196 13.461C24.3062 13.2898 24.3939 13.1047 24.4559 12.9109C24.4972 12.7571 24.5189 12.5986 24.5198 12.4393C24.5206 12.2119 24.4743 11.9865 24.3839 11.7781C24.2939 11.5695 24.1616 11.3817 23.9953 11.227L23.6596 10.9326C23.2555 10.5432 22.7918 10.2213 22.2861 9.97927L21.9013 9.78686C21.2254 9.53109 20.5085 9.40159 19.7861 9.40434C18.9972 9.43281 17.6696 9.78639 15.5086 11.2421Z" fill="white"/>
<path d="M10.3683 15.3367C10.3564 15.4713 10.3564 15.6063 10.3683 15.7409C10.4331 16.0641 10.6131 16.3534 10.8753 16.5564L11.3511 16.9375C13.8396 18.7956 16.4121 20.5736 18.9543 22.3297L19.3386 22.5501C19.5058 22.6378 19.6886 22.6929 19.8764 22.7113H19.9375C20.2406 22.7113 20.5349 22.6121 20.7751 22.4297L23.1331 20.783C23.9014 20.2113 24.7303 19.647 25.4907 19.0546C25.7415 18.8557 25.9743 18.6366 26.1874 18.3988C26.7752 17.7164 27.1435 16.8751 27.245 15.9828C27.245 15.6931 27.2822 15.3651 27.2822 15.0221V13.3075C27.2859 13.2744 27.2859 13.2409 27.2822 13.2083V13.239C27.2757 13.5779 27.2188 13.9146 27.1136 14.2374C26.812 15.1558 26.225 15.9558 25.4371 16.5233C23.9464 17.5974 22.4493 18.6725 20.9211 19.709L20.5726 19.9072C20.4036 19.9927 20.2167 20.0368 20.0275 20.0368H19.9356C19.8424 20.0332 19.7501 20.0189 19.6606 19.9936C19.5903 19.9753 19.5228 19.9482 19.4595 19.9132L18.9143 19.5913C17.0858 18.3464 15.2742 17.0762 13.48 15.7803L11.1219 14.0087L10.7761 13.6868C10.6241 13.533 10.5231 13.3373 10.4859 13.1251V13.043C10.4616 13.043 10.3674 15.3376 10.3674 15.3376L10.3683 15.3367Z" fill="url(#paint1_radial_7738_788)"/>
<g opacity="0.9">
<path d="M27.1309 20.0787C27.158 19.9983 27.1952 19.883 27.2343 19.7695V21.2988C27.2333 21.5899 27.2108 21.8806 27.1658 22.1685C27.0161 23.1691 26.5087 24.0825 25.7367 24.7429L25.0401 25.3133C24.2429 25.9061 23.4228 26.4769 22.5939 27.0477L20.8154 28.2724L20.6583 28.362C20.4594 28.4887 20.228 28.5553 19.9919 28.5539C19.8528 28.5553 19.715 28.5314 19.5846 28.4836C19.3968 28.4203 19.2196 28.3294 19.0589 28.2145L13.6846 24.4899L11.0285 22.5244C10.8751 22.417 10.7457 22.2792 10.6478 22.1203C10.55 21.9632 10.4857 21.7883 10.4586 21.6059C10.4513 21.4985 10.4513 21.3911 10.4586 21.2836V19.4688C10.4894 19.5382 10.528 19.6043 10.573 19.6654C10.6983 19.8137 10.843 19.944 11.0037 20.0543L12.7455 21.3484C14.4157 22.5749 16.1116 23.7643 17.8327 24.9174L18.9468 25.6788L19.4225 25.93H19.4321C19.6269 26.0058 19.8367 26.0351 20.0447 26.0163C20.2523 25.9979 20.4531 25.9318 20.6308 25.8239L20.853 25.7031H20.8567L25.311 22.5487C25.6991 22.2719 26.0445 21.9398 26.3356 21.5637C26.6892 21.1205 26.9587 20.6172 27.1309 20.0787Z" fill="url(#paint2_radial_7738_788)"/>
</g>
<defs>
<linearGradient id="paint0_linear_7738_788" x1="9.65073" y1="0.652046" x2="28.1475" y2="36.5544" gradientUnits="userSpaceOnUse">
<stop stop-color="#33343B"/>
<stop offset="1" stop-color="#18191E"/>
</linearGradient>
<radialGradient id="paint1_radial_7738_788" cx="0" cy="0" r="1" gradientUnits="userSpaceOnUse" gradientTransform="translate(16.5555 2.44197) rotate(54.83) scale(28.9738 52.3409)">
<stop stop-color="white"/>
<stop offset="1" stop-color="white"/>
</radialGradient>
<radialGradient id="paint2_radial_7738_788" cx="0" cy="0" r="1" gradientUnits="userSpaceOnUse" gradientTransform="translate(16.6067 9.61828) rotate(53.368) scale(27.7311 2.65656)">
<stop stop-color="white"/>
<stop offset="1" stop-color="white"/>
</radialGradient>
</defs>
</svg>
