<svg width="175" height="41" viewBox="0 0 175 41" fill="none" xmlns="http://www.w3.org/2000/svg">
<rect x="139" y="17" width="36" height="16" rx="3" fill="#EA115F"/>
<path d="M144.876 20.996V29H147.468C148.14 29 149.52 28.916 150.624 27.8C151.284 27.14 151.716 26.228 151.716 24.968C151.716 23.72 151.272 22.784 150.564 22.1C149.58 21.152 148.464 20.996 147.408 20.996H144.876ZM146.724 22.556H147.216C147.78 22.556 148.56 22.64 149.16 23.24C149.472 23.552 149.82 24.104 149.82 24.968C149.82 25.856 149.472 26.54 149.04 26.9C148.44 27.404 147.6 27.44 147.216 27.44H146.724V22.556ZM153.127 20.996V29H154.975V20.996H153.127ZM156.759 20.996V29H158.607V26.192H159.735C160.299 26.192 161.139 26.132 161.775 25.484C162.075 25.172 162.459 24.608 162.459 23.6C162.459 23.048 162.363 22.256 161.679 21.656C161.043 21.092 160.275 20.996 159.579 20.996H156.759ZM158.607 22.508H159.231C159.591 22.508 159.987 22.544 160.263 22.808C160.443 22.976 160.563 23.252 160.563 23.588C160.563 23.936 160.431 24.212 160.263 24.38C159.963 24.668 159.519 24.68 159.267 24.68H158.607V22.508ZM168.582 21.608C167.646 20.912 166.758 20.816 166.206 20.816C165.462 20.816 164.79 20.972 164.226 21.548C163.746 22.04 163.53 22.64 163.53 23.348C163.53 23.732 163.59 24.296 164.01 24.74C164.322 25.076 164.754 25.244 165.126 25.376L165.786 25.604C166.014 25.688 166.506 25.868 166.722 26.048C166.89 26.192 166.998 26.36 166.998 26.624C166.998 26.924 166.866 27.14 166.71 27.272C166.446 27.5 166.11 27.548 165.87 27.548C165.498 27.548 165.174 27.452 164.862 27.26C164.646 27.128 164.322 26.852 164.118 26.648L163.158 27.968C163.458 28.268 163.926 28.64 164.334 28.844C164.838 29.096 165.342 29.18 165.918 29.18C166.446 29.18 167.478 29.108 168.186 28.364C168.606 27.932 168.894 27.212 168.894 26.384C168.894 25.916 168.774 25.34 168.306 24.896C167.994 24.596 167.562 24.416 167.214 24.284L166.614 24.056C166.074 23.852 165.798 23.78 165.606 23.6C165.486 23.492 165.426 23.348 165.426 23.156C165.426 22.952 165.51 22.772 165.63 22.652C165.846 22.412 166.158 22.376 166.41 22.376C166.638 22.376 167.154 22.412 167.754 22.952L168.582 21.608Z" fill="white"/>
<path d="M0.107763 17.5028C0.0466872 12.0101 -0.129652 10.1117 1.2953 7.83817C3.60101 4.15939 6.45496 3.27265 8.23718 3.00079L27.5221 3.00079C32.3604 2.94484 35.2589 5.87318 35.2589 5.87318C38 8.89666 38 12.1015 38 12.1015V26.0121C38 31.0878 37.909 31.3605 37.909 31.3605C37.909 31.3605 37.909 35.3517 34.345 38.405C31.784 40.5996 29.3115 40.7126 23.6293 40.5513H14.9078C10.2436 40.4401 8.47651 41.0146 5.09347 39.2913C1.8413 37.634 0.556876 35.2694 0.107763 31.5108C-0.134704 29.4823 0.107763 31.1241 0.107763 26.0484V17.5028Z" fill="url(#paint0_linear_7738_787)"/>
<path d="M15.5086 14.2421L14.1993 15.1266C14.096 15.2304 14.0639 15.2946 14.1993 15.3902L14.327 15.494L16.0734 16.714C16.0734 16.714 17.8074 15.7722 18.1775 15.6133C18.8297 15.3208 19.5359 15.1711 20.25 15.1744C20.734 15.207 21.2143 15.2795 21.686 15.392C22.2885 15.5655 22.8588 15.8347 23.3764 16.1897L23.8681 16.5166C23.8865 16.5349 23.9081 16.5496 23.932 16.5602C23.9563 16.5708 23.982 16.5759 24.0081 16.5759C24.0344 16.5759 24.0605 16.5704 24.0849 16.5602C24.1088 16.5496 24.1299 16.5349 24.1483 16.5166C24.1684 16.5019 24.1845 16.483 24.196 16.461C24.3062 16.2898 24.3939 16.1047 24.4559 15.9109C24.4972 15.7571 24.5189 15.5986 24.5198 15.4393C24.5206 15.2119 24.4743 14.9865 24.3839 14.7781C24.2939 14.5695 24.1616 14.3817 23.9953 14.227L23.6596 13.9326C23.2555 13.5432 22.7918 13.2213 22.2861 12.9793L21.9013 12.7869C21.2254 12.5311 20.5085 12.4016 19.7861 12.4043C18.9972 12.4328 17.6696 12.7864 15.5086 14.2421Z" fill="white"/>
<path d="M10.3683 18.3367C10.3564 18.4713 10.3564 18.6063 10.3683 18.7409C10.4331 19.0641 10.6131 19.3534 10.8753 19.5564L11.3511 19.9375C13.8396 21.7956 16.4121 23.5736 18.9543 25.3297L19.3386 25.5501C19.5058 25.6378 19.6886 25.6929 19.8764 25.7113H19.9375C20.2406 25.7113 20.5349 25.6121 20.7751 25.4297L23.1331 23.783C23.9014 23.2113 24.7303 22.647 25.4907 22.0546C25.7415 21.8557 25.9743 21.6366 26.1874 21.3988C26.7752 20.7164 27.1435 19.8751 27.245 18.9828C27.245 18.6931 27.2822 18.3651 27.2822 18.0221V16.3075C27.2859 16.2744 27.2859 16.2409 27.2822 16.2083V16.239C27.2757 16.5779 27.2188 16.9146 27.1136 17.2374C26.812 18.1558 26.225 18.9558 25.4371 19.5233C23.9464 20.5974 22.4493 21.6725 20.9211 22.709L20.5726 22.9072C20.4036 22.9927 20.2167 23.0368 20.0275 23.0368H19.9356C19.8424 23.0332 19.7501 23.0189 19.6606 22.9936C19.5903 22.9753 19.5228 22.9482 19.4595 22.9132L18.9143 22.5913C17.0858 21.3464 15.2742 20.0762 13.48 18.7803L11.1219 17.0087L10.7761 16.6868C10.6241 16.533 10.5231 16.3373 10.4859 16.1251V16.043C10.4616 16.043 10.3674 18.3376 10.3674 18.3376L10.3683 18.3367Z" fill="url(#paint1_radial_7738_787)"/>
<g opacity="0.9">
<path d="M27.1309 23.0787C27.158 22.9983 27.1952 22.883 27.2343 22.7695V24.2988C27.2333 24.5899 27.2108 24.8806 27.1658 25.1685C27.0161 26.1691 26.5087 27.0825 25.7367 27.7429L25.0401 28.3133C24.2429 28.9061 23.4228 29.4769 22.5939 30.0477L20.8154 31.2724L20.6583 31.362C20.4594 31.4887 20.228 31.5553 19.9919 31.5539C19.8528 31.5553 19.715 31.5314 19.5846 31.4836C19.3968 31.4203 19.2196 31.3294 19.0589 31.2145L13.6846 27.4899L11.0285 25.5244C10.8751 25.417 10.7457 25.2792 10.6478 25.1203C10.55 24.9632 10.4857 24.7883 10.4586 24.6059C10.4513 24.4985 10.4513 24.3911 10.4586 24.2836V22.4688C10.4894 22.5382 10.528 22.6043 10.573 22.6654C10.6983 22.8137 10.843 22.944 11.0037 23.0543L12.7455 24.3484C14.4157 25.5749 16.1116 26.7643 17.8327 27.9174L18.9468 28.6788L19.4225 28.93H19.4321C19.6269 29.0058 19.8367 29.0351 20.0447 29.0163C20.2523 28.9979 20.4531 28.9318 20.6308 28.8239L20.853 28.7031H20.8567L25.311 25.5487C25.6991 25.2719 26.0445 24.9398 26.3356 24.5637C26.6892 24.1205 26.9587 23.6172 27.1309 23.0787Z" fill="url(#paint2_radial_7738_787)"/>
</g>
<path d="M50.5781 31.0156V13.4531C50.5781 12.8281 50.75 12.3438 51.0938 12C51.4375 11.6458 51.9271 11.4688 52.5625 11.4688H57.7969C61.3385 11.4688 64.0573 12.375 65.9531 14.1875C67.849 15.9896 68.7969 18.5156 68.7969 21.7656C68.7969 25.276 67.7865 28.026 65.7656 30.0156C63.7448 32.0052 60.9375 33 57.3438 33H52.5625C51.9271 33 51.4375 32.8281 51.0938 32.4844C50.75 32.1302 50.5781 31.6406 50.5781 31.0156ZM54.9375 29.6406H57.5625C59.6771 29.6406 61.3333 28.9948 62.5312 27.7031C63.7292 26.401 64.3281 24.5312 64.3281 22.0938C64.3281 17.25 62.0729 14.8281 57.5625 14.8281H54.9375V29.6406ZM71.6844 31.2344V18.875C71.6844 17.625 72.3927 17 73.8094 17C75.226 17 75.9344 17.625 75.9344 18.875V31.2344C75.9344 32.4844 75.226 33.1094 73.8094 33.1094C72.3927 33.1094 71.6844 32.4844 71.6844 31.2344ZM71.2625 12.4219C71.2625 11.724 71.5021 11.1458 71.9813 10.6875C72.4604 10.2188 73.0802 9.98438 73.8406 9.98438C74.5594 9.98438 75.1583 10.2135 75.6375 10.6719C76.1167 11.1302 76.3563 11.6927 76.3563 12.3594C76.3563 13.0573 76.1167 13.6406 75.6375 14.1094C75.1583 14.5677 74.5385 14.7969 73.7781 14.7969C73.0594 14.7969 72.4604 14.5677 71.9813 14.1094C71.5021 13.651 71.2625 13.0885 71.2625 12.4219ZM79.775 32.5938V18.875C79.775 17.625 80.4781 17 81.8844 17C83.301 17 84.0094 17.625 84.0094 18.875V32.7969C84.0094 35.4635 83.3219 37.4844 81.9469 38.8594C80.8531 39.9531 79.6917 40.5 78.4625 40.5C77.9 40.5 77.4521 40.3542 77.1187 40.0625C76.775 39.7812 76.6031 39.4062 76.6031 38.9375C76.6031 38.4375 76.8323 38.0052 77.2906 37.6406C77.7385 37.3177 78.0979 37.0208 78.3687 36.75C78.6396 36.4896 78.8896 36.1667 79.1187 35.7812C79.3583 35.3958 79.525 34.9427 79.6187 34.4219C79.7229 33.9115 79.775 33.3021 79.775 32.5938ZM79.3375 12.4219C79.3375 11.724 79.5771 11.1458 80.0562 10.6875C80.5354 10.2188 81.1552 9.98438 81.9156 9.98438C82.6448 9.98438 83.249 10.2135 83.7281 10.6719C84.2073 11.1302 84.4469 11.6927 84.4469 12.3594C84.4469 13.0573 84.2021 13.6406 83.7125 14.1094C83.2333 14.5677 82.6135 14.7969 81.8531 14.7969C81.1344 14.7969 80.5354 14.5677 80.0562 14.1094C79.5771 13.651 79.3375 13.0885 79.3375 12.4219ZM99.2719 25.9375H91.0531V25.9688C91.1781 27.2604 91.626 28.2552 92.3969 28.9531C93.1781 29.651 94.2302 30 95.5531 30C96.3865 30 97.1937 29.8854 97.975 29.6562C98.7562 29.4167 99.225 29.2969 99.3812 29.2969C99.7667 29.2969 100.074 29.4271 100.303 29.6875C100.532 29.9375 100.647 30.2448 100.647 30.6094C100.647 31.0885 100.47 31.5052 100.116 31.8594C99.7406 32.2344 99.0896 32.5729 98.1625 32.875C97.2354 33.1667 96.1156 33.3125 94.8031 33.3125C92.324 33.3125 90.3708 32.6198 88.9437 31.2344C87.5271 29.849 86.8187 27.9635 86.8187 25.5781C86.8187 22.849 87.5479 20.7031 89.0062 19.1406C90.4646 17.5781 92.3812 16.7969 94.7562 16.7969C96.7667 16.7969 98.3656 17.4062 99.5531 18.625C100.751 19.8438 101.35 21.5156 101.35 23.6406C101.35 25.1719 100.657 25.9375 99.2719 25.9375ZM91.1 23.2188H97.3969C97.2615 22.0521 96.9437 21.1927 96.4437 20.6406C95.9542 20.0885 95.2562 19.8125 94.35 19.8125C93.5479 19.8125 92.8604 20.0938 92.2875 20.6562C91.7146 21.2083 91.3187 22.0625 91.1 23.2188ZM104.894 20.2812H103.659C103.232 20.2812 102.894 20.1458 102.644 19.875C102.394 19.5938 102.269 19.1979 102.269 18.6875C102.269 18.1875 102.394 17.8021 102.644 17.5312C102.894 17.25 103.232 17.1094 103.659 17.1094H105.034L105.534 14.4688C105.764 13.3125 106.404 12.7344 107.456 12.7344C107.998 12.7344 108.415 12.8854 108.706 13.1875C108.998 13.4792 109.144 13.9062 109.144 14.4688V17.1094H111.784C112.211 17.1094 112.55 17.25 112.8 17.5312C113.05 17.8021 113.175 18.1875 113.175 18.6875C113.175 19.1979 113.05 19.5938 112.8 19.875C112.55 20.1458 112.211 20.2812 111.784 20.2812H109.144V27.7969C109.144 28.526 109.264 29.0521 109.503 29.375C109.753 29.6875 110.144 29.8438 110.675 29.8438C110.956 29.8438 111.248 29.8073 111.55 29.7344C111.852 29.6615 112.055 29.625 112.159 29.625C112.493 29.625 112.764 29.7448 112.972 29.9844C113.191 30.2135 113.3 30.5156 113.3 30.8906C113.3 31.401 113.118 31.8385 112.753 32.2031C112.107 32.849 111.029 33.1719 109.519 33.1719C107.935 33.1719 106.769 32.7969 106.019 32.0469C105.269 31.2969 104.894 30.1406 104.894 28.5781V20.2812ZM114.422 21.7812C114.422 20.3125 114.995 19.1198 116.141 18.2031C117.286 17.276 118.932 16.8125 121.078 16.8125C122.13 16.8125 123.01 16.9219 123.719 17.1406C124.427 17.3594 124.927 17.6146 125.219 17.9062C125.552 18.2396 125.719 18.6719 125.719 19.2031C125.719 19.599 125.594 19.9219 125.344 20.1719C125.094 20.4219 124.776 20.5469 124.391 20.5469C124.193 20.5469 123.724 20.4375 122.984 20.2188C122.255 20 121.552 19.8906 120.875 19.8906C120.083 19.8906 119.5 20.0208 119.125 20.2812C118.75 20.5312 118.562 20.8646 118.562 21.2812C118.562 21.6354 118.708 21.9375 119 22.1875C119.292 22.4375 119.667 22.6458 120.125 22.8125C120.594 22.9792 121.109 23.1406 121.672 23.2969C122.245 23.4531 122.812 23.651 123.375 23.8906C123.938 24.1302 124.448 24.4167 124.906 24.75C125.375 25.0729 125.755 25.5208 126.047 26.0938C126.339 26.6562 126.484 27.3177 126.484 28.0781C126.484 29.6094 125.88 30.8646 124.672 31.8438C123.464 32.8125 121.734 33.2969 119.484 33.2969C117.234 33.2969 115.719 32.9062 114.938 32.125C114.604 31.7917 114.438 31.3594 114.438 30.8281C114.438 30.4219 114.557 30.0938 114.797 29.8438C115.047 29.5833 115.37 29.4531 115.766 29.4531C115.922 29.4531 116.406 29.5781 117.219 29.8281C118.031 30.0781 118.854 30.2031 119.688 30.2031C120.594 30.2031 121.26 30.0573 121.688 29.7656C122.115 29.474 122.328 29.0833 122.328 28.5938C122.328 28.2708 122.214 27.9844 121.984 27.7344C121.766 27.4844 121.469 27.2865 121.094 27.1406C120.719 26.9948 120.292 26.8438 119.812 26.6875C119.344 26.5208 118.865 26.3646 118.375 26.2188C117.885 26.0729 117.401 25.875 116.922 25.625C116.453 25.375 116.031 25.0938 115.656 24.7812C115.281 24.4688 114.979 24.0573 114.75 23.5469C114.531 23.026 114.422 22.4375 114.422 21.7812Z" fill="#302E2E"/>
<defs>
<linearGradient id="paint0_linear_7738_787" x1="9.65073" y1="3.65205" x2="28.1475" y2="39.5544" gradientUnits="userSpaceOnUse">
<stop stop-color="#33343B"/>
<stop offset="1" stop-color="#18191E"/>
</linearGradient>
<radialGradient id="paint1_radial_7738_787" cx="0" cy="0" r="1" gradientUnits="userSpaceOnUse" gradientTransform="translate(16.5555 5.44197) rotate(54.83) scale(28.9738 52.3409)">
<stop stop-color="white"/>
<stop offset="1" stop-color="white"/>
</radialGradient>
<radialGradient id="paint2_radial_7738_787" cx="0" cy="0" r="1" gradientUnits="userSpaceOnUse" gradientTransform="translate(16.6067 12.6183) rotate(53.368) scale(27.7311 2.65656)">
<stop stop-color="white"/>
<stop offset="1" stop-color="white"/>
</radialGradient>
</defs>
</svg>
