<svg width="375" height="34" viewBox="0 0 375 34" fill="none" xmlns="http://www.w3.org/2000/svg">
<g clip-path="url(#clip0_7738_654)">
<path d="M0.0915774 13.3245C0.039675 8.65686 -0.110179 7.0436 1.10075 5.11151C3.06016 1.98526 5.48546 1.2317 7 1.00067L23.3884 1.00067C27.5 0.953126 29.9632 3.44164 29.9632 3.44164C32.2926 6.01101 32.2926 8.73453 32.2926 8.73453V20.5558C32.2926 24.8691 32.2153 25.1009 32.2153 25.1009C32.2153 25.1009 32.2153 28.4926 29.1866 31.0873C27.0102 32.9523 24.9091 33.0483 20.0803 32.9113H12.6687C8.70504 32.8168 7.20338 33.305 4.32846 31.8405C1.56475 30.4321 0.473236 28.4227 0.0915774 25.2286C-0.114472 23.5048 0.0915774 24.9 0.0915774 20.5866V13.3245Z" fill="url(#paint0_linear_7738_654)"/>
<path d="M13.1812 10.554L12.0686 11.3056C11.9808 11.3938 11.9535 11.4484 12.0686 11.5296L12.1771 11.6178L13.6612 12.6546C13.6612 12.6546 15.1348 11.8542 15.4493 11.7192C16.0035 11.4706 16.6037 11.3434 17.2105 11.3462C17.6218 11.3739 18.03 11.4355 18.4308 11.5311C18.9428 11.6786 19.4275 11.9073 19.8673 12.209L20.2852 12.4868C20.3008 12.5024 20.3192 12.5149 20.3395 12.5239C20.3601 12.5329 20.382 12.5372 20.4042 12.5372C20.4265 12.5372 20.4487 12.5325 20.4694 12.5239C20.4897 12.5149 20.5077 12.5024 20.5233 12.4868C20.5404 12.4743 20.5541 12.4583 20.5638 12.4396C20.6575 12.2941 20.732 12.1368 20.7847 11.9721C20.8198 11.8414 20.8382 11.7067 20.839 11.5713C20.8397 11.3781 20.8003 11.1865 20.7235 11.0094C20.647 10.8322 20.5346 10.6726 20.3933 10.5411L20.108 10.291C19.7646 9.96002 19.3705 9.68646 18.9408 9.4808L18.6138 9.31729C18.0394 9.09993 17.4302 8.98988 16.8163 8.99222C16.1459 9.01641 15.0177 9.31689 13.1812 10.554Z" fill="white"/>
<path d="M8.8123 14.0332C8.80215 14.1476 8.80215 14.2623 8.8123 14.3767C8.86732 14.6514 9.0203 14.8972 9.24313 15.0697L9.64742 15.3936C11.7622 16.9726 13.9483 18.4836 16.1087 19.9759L16.4353 20.1632C16.5774 20.2377 16.7327 20.2846 16.8923 20.3002H16.9442C17.2018 20.3002 17.4519 20.2159 17.656 20.0609L19.6599 18.6615C20.3128 18.1757 21.0172 17.6961 21.6634 17.1927C21.8765 17.0237 22.0743 16.8375 22.2554 16.6354C22.7549 16.0555 23.0679 15.3406 23.1542 14.5823C23.1542 14.3361 23.1858 14.0574 23.1858 13.7659V12.3088C23.1889 12.2807 23.1889 12.2522 23.1858 12.2245V12.2506C23.1803 12.5386 23.1319 12.8247 23.0425 13.099C22.7862 13.8795 22.2874 14.5593 21.6178 15.0416C20.351 15.9544 19.0788 16.868 17.7801 17.7488L17.4839 17.9173C17.3403 17.9899 17.1815 18.0274 17.0207 18.0274H16.9426C16.8634 18.0243 16.785 18.0122 16.7089 17.9907C16.6492 17.9751 16.5918 17.9521 16.538 17.9224L16.0747 17.6488C14.5208 16.5909 12.9813 15.5115 11.4566 14.4102L9.45269 12.9047L9.15883 12.6311C9.02966 12.5004 8.94381 12.3341 8.9122 12.1538V12.084C8.89152 12.084 8.81152 14.034 8.81152 14.034L8.8123 14.0332Z" fill="url(#paint1_radial_7738_654)"/>
<g opacity="0.9">
<path d="M23.0479 18.0652C23.0709 17.9969 23.1025 17.8989 23.1357 17.8025V19.1021C23.1349 19.3495 23.1158 19.5965 23.0775 19.8412C22.9503 20.6915 22.5191 21.4677 21.8631 22.0289L21.2711 22.5136C20.5936 23.0174 19.8967 23.5025 19.1923 23.9875L17.6809 25.0283L17.5474 25.1044C17.3784 25.2121 17.1817 25.2687 16.9811 25.2675C16.8629 25.2687 16.7458 25.2484 16.635 25.2078C16.4754 25.154 16.3248 25.0767 16.1882 24.9791L11.6211 21.8139L9.36398 20.1436C9.23363 20.0523 9.12359 19.9352 9.04046 19.8002C8.95734 19.6667 8.90271 19.5181 8.87968 19.3631C8.87344 19.2718 8.87344 19.1805 8.87968 19.0892V17.5469C8.90583 17.6059 8.93861 17.6621 8.97685 17.714C9.08339 17.84 9.20632 17.9508 9.3429 18.0445L10.8231 19.1442C12.2424 20.1865 13.6836 21.1973 15.1462 22.1772L16.093 22.8242L16.4972 23.0377H16.5054C16.6709 23.1021 16.8492 23.127 17.026 23.111C17.2024 23.0954 17.373 23.0392 17.524 22.9475L17.7129 22.8449H17.716L21.5013 20.1643C21.8311 19.929 22.1246 19.6468 22.372 19.3272C22.6725 18.9506 22.9015 18.5229 23.0479 18.0652Z" fill="url(#paint2_radial_7738_654)"/>
</g>
<path d="M44.5781 24.0156V6.45312C44.5781 5.82812 44.75 5.34375 45.0938 5C45.4375 4.64583 45.9271 4.46875 46.5625 4.46875H51.7969C55.3385 4.46875 58.0573 5.375 59.9531 7.1875C61.849 8.98958 62.7969 11.5156 62.7969 14.7656C62.7969 18.276 61.7865 21.026 59.7656 23.0156C57.7448 25.0052 54.9375 26 51.3438 26H46.5625C45.9271 26 45.4375 25.8281 45.0938 25.4844C44.75 25.1302 44.5781 24.6406 44.5781 24.0156ZM48.9375 22.6406H51.5625C53.6771 22.6406 55.3333 21.9948 56.5312 20.7031C57.7292 19.401 58.3281 17.5312 58.3281 15.0938C58.3281 10.25 56.0729 7.82812 51.5625 7.82812H48.9375V22.6406ZM65.6844 24.2344V11.875C65.6844 10.625 66.3927 10 67.8094 10C69.226 10 69.9344 10.625 69.9344 11.875V24.2344C69.9344 25.4844 69.226 26.1094 67.8094 26.1094C66.3927 26.1094 65.6844 25.4844 65.6844 24.2344ZM65.2625 5.42188C65.2625 4.72396 65.5021 4.14583 65.9813 3.6875C66.4604 3.21875 67.0802 2.98438 67.8406 2.98438C68.5594 2.98438 69.1583 3.21354 69.6375 3.67188C70.1167 4.13021 70.3563 4.69271 70.3563 5.35938C70.3563 6.05729 70.1167 6.64062 69.6375 7.10938C69.1583 7.56771 68.5385 7.79688 67.7781 7.79688C67.0594 7.79688 66.4604 7.56771 65.9813 7.10938C65.5021 6.65104 65.2625 6.08854 65.2625 5.42188ZM73.775 25.5938V11.875C73.775 10.625 74.4781 10 75.8844 10C77.301 10 78.0094 10.625 78.0094 11.875V25.7969C78.0094 28.4635 77.3219 30.4844 75.9469 31.8594C74.8531 32.9531 73.6917 33.5 72.4625 33.5C71.9 33.5 71.4521 33.3542 71.1187 33.0625C70.775 32.7812 70.6031 32.4062 70.6031 31.9375C70.6031 31.4375 70.8323 31.0052 71.2906 30.6406C71.7385 30.3177 72.0979 30.0208 72.3687 29.75C72.6396 29.4896 72.8896 29.1667 73.1187 28.7812C73.3583 28.3958 73.525 27.9427 73.6187 27.4219C73.7229 26.9115 73.775 26.3021 73.775 25.5938ZM73.3375 5.42188C73.3375 4.72396 73.5771 4.14583 74.0562 3.6875C74.5354 3.21875 75.1552 2.98438 75.9156 2.98438C76.6448 2.98438 77.249 3.21354 77.7281 3.67188C78.2073 4.13021 78.4469 4.69271 78.4469 5.35938C78.4469 6.05729 78.2021 6.64062 77.7125 7.10938C77.2333 7.56771 76.6135 7.79688 75.8531 7.79688C75.1344 7.79688 74.5354 7.56771 74.0562 7.10938C73.5771 6.65104 73.3375 6.08854 73.3375 5.42188ZM93.2719 18.9375H85.0531V18.9688C85.1781 20.2604 85.626 21.2552 86.3969 21.9531C87.1781 22.651 88.2302 23 89.5531 23C90.3865 23 91.1937 22.8854 91.975 22.6562C92.7562 22.4167 93.225 22.2969 93.3812 22.2969C93.7667 22.2969 94.074 22.4271 94.3031 22.6875C94.5323 22.9375 94.6469 23.2448 94.6469 23.6094C94.6469 24.0885 94.4698 24.5052 94.1156 24.8594C93.7406 25.2344 93.0896 25.5729 92.1625 25.875C91.2354 26.1667 90.1156 26.3125 88.8031 26.3125C86.324 26.3125 84.3708 25.6198 82.9437 24.2344C81.5271 22.849 80.8187 20.9635 80.8187 18.5781C80.8187 15.849 81.5479 13.7031 83.0062 12.1406C84.4646 10.5781 86.3812 9.79688 88.7562 9.79688C90.7667 9.79688 92.3656 10.4062 93.5531 11.625C94.751 12.8438 95.35 14.5156 95.35 16.6406C95.35 18.1719 94.6573 18.9375 93.2719 18.9375ZM85.1 16.2188H91.3969C91.2615 15.0521 90.9437 14.1927 90.4437 13.6406C89.9542 13.0885 89.2562 12.8125 88.35 12.8125C87.5479 12.8125 86.8604 13.0938 86.2875 13.6562C85.7146 14.2083 85.3187 15.0625 85.1 16.2188ZM98.8937 13.2812H97.6594C97.2323 13.2812 96.8937 13.1458 96.6437 12.875C96.3937 12.5938 96.2687 12.1979 96.2687 11.6875C96.2687 11.1875 96.3937 10.8021 96.6437 10.5312C96.8937 10.25 97.2323 10.1094 97.6594 10.1094H99.0344L99.5344 7.46875C99.7635 6.3125 100.404 5.73438 101.456 5.73438C101.998 5.73438 102.415 5.88542 102.706 6.1875C102.998 6.47917 103.144 6.90625 103.144 7.46875V10.1094H105.784C106.211 10.1094 106.55 10.25 106.8 10.5312C107.05 10.8021 107.175 11.1875 107.175 11.6875C107.175 12.1979 107.05 12.5938 106.8 12.875C106.55 13.1458 106.211 13.2812 105.784 13.2812H103.144V20.7969C103.144 21.526 103.264 22.0521 103.503 22.375C103.753 22.6875 104.144 22.8438 104.675 22.8438C104.956 22.8438 105.248 22.8073 105.55 22.7344C105.852 22.6615 106.055 22.625 106.159 22.625C106.493 22.625 106.764 22.7448 106.972 22.9844C107.191 23.2135 107.3 23.5156 107.3 23.8906C107.3 24.401 107.118 24.8385 106.753 25.2031C106.107 25.849 105.029 26.1719 103.519 26.1719C101.935 26.1719 100.769 25.7969 100.019 25.0469C99.2687 24.2969 98.8937 23.1406 98.8937 21.5781V13.2812ZM108.422 14.7812C108.422 13.3125 108.995 12.1198 110.141 11.2031C111.286 10.276 112.932 9.8125 115.078 9.8125C116.13 9.8125 117.01 9.92188 117.719 10.1406C118.427 10.3594 118.927 10.6146 119.219 10.9062C119.552 11.2396 119.719 11.6719 119.719 12.2031C119.719 12.599 119.594 12.9219 119.344 13.1719C119.094 13.4219 118.776 13.5469 118.391 13.5469C118.193 13.5469 117.724 13.4375 116.984 13.2188C116.255 13 115.552 12.8906 114.875 12.8906C114.083 12.8906 113.5 13.0208 113.125 13.2812C112.75 13.5312 112.562 13.8646 112.562 14.2812C112.562 14.6354 112.708 14.9375 113 15.1875C113.292 15.4375 113.667 15.6458 114.125 15.8125C114.594 15.9792 115.109 16.1406 115.672 16.2969C116.245 16.4531 116.812 16.651 117.375 16.8906C117.938 17.1302 118.448 17.4167 118.906 17.75C119.375 18.0729 119.755 18.5208 120.047 19.0938C120.339 19.6562 120.484 20.3177 120.484 21.0781C120.484 22.6094 119.88 23.8646 118.672 24.8438C117.464 25.8125 115.734 26.2969 113.484 26.2969C111.234 26.2969 109.719 25.9062 108.938 25.125C108.604 24.7917 108.438 24.3594 108.438 23.8281C108.438 23.4219 108.557 23.0938 108.797 22.8438C109.047 22.5833 109.37 22.4531 109.766 22.4531C109.922 22.4531 110.406 22.5781 111.219 22.8281C112.031 23.0781 112.854 23.2031 113.688 23.2031C114.594 23.2031 115.26 23.0573 115.688 22.7656C116.115 22.474 116.328 22.0833 116.328 21.5938C116.328 21.2708 116.214 20.9844 115.984 20.7344C115.766 20.4844 115.469 20.2865 115.094 20.1406C114.719 19.9948 114.292 19.8438 113.812 19.6875C113.344 19.5208 112.865 19.3646 112.375 19.2188C111.885 19.0729 111.401 18.875 110.922 18.625C110.453 18.375 110.031 18.0938 109.656 17.7812C109.281 17.4688 108.979 17.0573 108.75 16.5469C108.531 16.026 108.422 15.4375 108.422 14.7812Z" fill="#302E2E"/>
<rect x="141" y="10" width="36" height="16" rx="3" fill="#EA115F"/>
<path d="M146.876 13.996V22H149.468C150.14 22 151.52 21.916 152.624 20.8C153.284 20.14 153.716 19.228 153.716 17.968C153.716 16.72 153.272 15.784 152.564 15.1C151.58 14.152 150.464 13.996 149.408 13.996H146.876ZM148.724 15.556H149.216C149.78 15.556 150.56 15.64 151.16 16.24C151.472 16.552 151.82 17.104 151.82 17.968C151.82 18.856 151.472 19.54 151.04 19.9C150.44 20.404 149.6 20.44 149.216 20.44H148.724V15.556ZM155.127 13.996V22H156.975V13.996H155.127ZM158.759 13.996V22H160.607V19.192H161.735C162.299 19.192 163.139 19.132 163.775 18.484C164.075 18.172 164.459 17.608 164.459 16.6C164.459 16.048 164.363 15.256 163.679 14.656C163.043 14.092 162.275 13.996 161.579 13.996H158.759ZM160.607 15.508H161.231C161.591 15.508 161.987 15.544 162.263 15.808C162.443 15.976 162.563 16.252 162.563 16.588C162.563 16.936 162.431 17.212 162.263 17.38C161.963 17.668 161.519 17.68 161.267 17.68H160.607V15.508ZM170.582 14.608C169.646 13.912 168.758 13.816 168.206 13.816C167.462 13.816 166.79 13.972 166.226 14.548C165.746 15.04 165.53 15.64 165.53 16.348C165.53 16.732 165.59 17.296 166.01 17.74C166.322 18.076 166.754 18.244 167.126 18.376L167.786 18.604C168.014 18.688 168.506 18.868 168.722 19.048C168.89 19.192 168.998 19.36 168.998 19.624C168.998 19.924 168.866 20.14 168.71 20.272C168.446 20.5 168.11 20.548 167.87 20.548C167.498 20.548 167.174 20.452 166.862 20.26C166.646 20.128 166.322 19.852 166.118 19.648L165.158 20.968C165.458 21.268 165.926 21.64 166.334 21.844C166.838 22.096 167.342 22.18 167.918 22.18C168.446 22.18 169.478 22.108 170.186 21.364C170.606 20.932 170.894 20.212 170.894 19.384C170.894 18.916 170.774 18.34 170.306 17.896C169.994 17.596 169.562 17.416 169.214 17.284L168.614 17.056C168.074 16.852 167.798 16.78 167.606 16.6C167.486 16.492 167.426 16.348 167.426 16.156C167.426 15.952 167.51 15.772 167.63 15.652C167.846 15.412 168.158 15.376 168.41 15.376C168.638 15.376 169.154 15.412 169.754 15.952L170.582 14.608Z" fill="white"/>
<path d="M185.45 22.8838V13.0049C185.45 12.6533 185.547 12.3809 185.74 12.1875C185.934 11.9883 186.209 11.8887 186.566 11.8887H189.511C191.503 11.8887 193.032 12.3984 194.099 13.418C195.165 14.4316 195.698 15.8525 195.698 17.6807C195.698 19.6553 195.13 21.2021 193.993 22.3213C192.856 23.4404 191.277 24 189.256 24H186.566C186.209 24 185.934 23.9033 185.74 23.71C185.547 23.5107 185.45 23.2354 185.45 22.8838ZM187.902 22.1104H189.379C190.568 22.1104 191.5 21.7471 192.174 21.0205C192.848 20.2881 193.185 19.2363 193.185 17.8652C193.185 15.1406 191.916 13.7783 189.379 13.7783H187.902V22.1104ZM198.201 22.9805V12.9082C198.201 12.1875 198.608 11.8271 199.422 11.8271C200.243 11.8271 200.653 12.1875 200.653 12.9082V22.9805C200.653 23.7012 200.243 24.0615 199.422 24.0615C198.608 24.0615 198.201 23.7012 198.201 22.9805ZM206.223 19.1484V22.9805C206.223 23.7012 205.821 24.0615 205.019 24.0615C204.216 24.0615 203.814 23.7012 203.814 22.9805V13.0049C203.814 12.6533 203.911 12.3809 204.104 12.1875C204.298 11.9883 204.573 11.8887 204.931 11.8887H207.515C209.108 11.8887 210.301 12.1992 211.092 12.8203C211.883 13.4414 212.278 14.2793 212.278 15.334C212.278 16.1426 212.059 16.8369 211.619 17.417C211.186 17.9912 210.597 18.4043 209.853 18.6562L212.12 22.1455C212.308 22.4326 212.401 22.6816 212.401 22.8926C212.401 23.2207 212.258 23.502 211.971 23.7363C211.689 23.9707 211.373 24.0879 211.021 24.0879C210.711 24.0879 210.453 23.9854 210.248 23.7803C210.137 23.6689 210.014 23.499 209.879 23.2705L207.436 19.1484H206.223ZM206.223 17.2852H207.462C208.229 17.2852 208.81 17.124 209.202 16.8018C209.595 16.4736 209.791 16.0342 209.791 15.4834C209.791 14.3291 208.991 13.752 207.392 13.752H206.223V17.2852ZM217.277 18.7529V22.0928H221.408C221.665 22.0928 221.868 22.1748 222.014 22.3389C222.161 22.5029 222.234 22.7402 222.234 23.0508C222.234 23.3613 222.161 23.5986 222.014 23.7627C221.868 23.9209 221.665 24 221.408 24H215.941C215.583 24 215.308 23.9033 215.115 23.71C214.921 23.5107 214.825 23.2354 214.825 22.8838V13.0049C214.825 12.6533 214.921 12.3809 215.115 12.1875C215.308 11.9883 215.583 11.8887 215.941 11.8887H221.364C221.627 11.8887 221.832 11.9707 221.979 12.1348C222.125 12.293 222.199 12.5273 222.199 12.8379C222.199 13.1484 222.125 13.3857 221.979 13.5498C221.832 13.7139 221.627 13.7959 221.364 13.7959H217.277V16.8809H220.766C221.018 16.8809 221.217 16.9629 221.364 17.127C221.51 17.2852 221.583 17.5166 221.583 17.8213C221.583 18.1201 221.51 18.3516 221.364 18.5156C221.217 18.6738 221.018 18.7529 220.766 18.7529H217.277ZM223.989 18.3486C223.989 16.3154 224.528 14.7041 225.606 13.5146C226.684 12.3252 228.102 11.7305 229.86 11.7305C230.534 11.7305 231.111 11.8184 231.592 11.9941C232.078 12.1641 232.43 12.3574 232.646 12.5742C232.881 12.8086 232.998 13.0928 232.998 13.4268C232.998 13.6787 232.919 13.8867 232.761 14.0508C232.602 14.2148 232.4 14.2969 232.154 14.2969C232.019 14.2969 231.852 14.2471 231.653 14.1475C231.46 14.0479 231.208 13.9482 230.897 13.8486C230.587 13.7432 230.224 13.6904 229.808 13.6904C228.858 13.6904 228.07 14.0713 227.443 14.833C226.816 15.5947 226.503 16.6758 226.503 18.0762C226.503 19.3711 226.816 20.3789 227.443 21.0996C228.076 21.8145 228.905 22.1719 229.931 22.1719C230.335 22.1719 230.695 22.1221 231.012 22.0225C231.334 21.9229 231.598 21.8262 231.803 21.7324C232.008 21.6328 232.172 21.583 232.295 21.583C232.506 21.583 232.682 21.6621 232.822 21.8203C232.963 21.9727 233.033 22.166 233.033 22.4004C233.033 22.6992 232.919 22.9629 232.69 23.1914C232.438 23.4434 232.037 23.666 231.486 23.8594C230.941 24.0527 230.282 24.1494 229.509 24.1494C227.851 24.1494 226.515 23.6279 225.501 22.585C224.493 21.5361 223.989 20.124 223.989 18.3486ZM237.689 13.8574H234.92C234.651 13.8574 234.44 13.7754 234.287 13.6113C234.141 13.4473 234.068 13.2012 234.068 12.873C234.068 12.5449 234.141 12.2988 234.287 12.1348C234.44 11.9707 234.651 11.8887 234.92 11.8887H242.901C243.17 11.8887 243.378 11.9707 243.525 12.1348C243.677 12.2988 243.753 12.5449 243.753 12.873C243.753 13.2012 243.677 13.4473 243.525 13.6113C243.378 13.7754 243.17 13.8574 242.901 13.8574H240.132V22.9805C240.132 23.7012 239.725 24.0615 238.911 24.0615C238.096 24.0615 237.689 23.7012 237.689 22.9805V13.8574ZM244.639 18.1113C244.639 16.125 245.181 14.5605 246.265 13.418C247.354 12.2754 248.799 11.7041 250.598 11.7041C252.338 11.7041 253.726 12.2461 254.764 13.3301C255.807 14.4141 256.328 15.8965 256.328 17.7773C256.328 19.7578 255.786 21.3193 254.702 22.4619C253.618 23.6045 252.177 24.1758 250.378 24.1758C248.638 24.1758 247.246 23.6367 246.203 22.5586C245.16 21.4746 244.639 19.9922 244.639 18.1113ZM247.152 17.9268C247.152 19.2861 247.469 20.3438 248.101 21.0996C248.734 21.8555 249.534 22.2334 250.501 22.2334C251.474 22.2334 252.267 21.8613 252.883 21.1172C253.504 20.3672 253.814 19.3154 253.814 17.9619C253.814 16.6025 253.498 15.5449 252.865 14.7891C252.238 14.0332 251.438 13.6553 250.466 13.6553C249.499 13.6553 248.705 14.0303 248.084 14.7803C247.463 15.5244 247.152 16.5732 247.152 17.9268ZM261.256 19.1484V22.9805C261.256 23.7012 260.855 24.0615 260.052 24.0615C259.249 24.0615 258.848 23.7012 258.848 22.9805V13.0049C258.848 12.6533 258.945 12.3809 259.138 12.1875C259.331 11.9883 259.607 11.8887 259.964 11.8887H262.548C264.142 11.8887 265.334 12.1992 266.125 12.8203C266.916 13.4414 267.312 14.2793 267.312 15.334C267.312 16.1426 267.092 16.8369 266.653 17.417C266.219 17.9912 265.63 18.4043 264.886 18.6562L267.154 22.1455C267.341 22.4326 267.435 22.6816 267.435 22.8926C267.435 23.2207 267.291 23.502 267.004 23.7363C266.723 23.9707 266.407 24.0879 266.055 24.0879C265.744 24.0879 265.487 23.9854 265.282 23.7803C265.17 23.6689 265.047 23.499 264.912 23.2705L262.469 19.1484H261.256ZM261.256 17.2852H262.495C263.263 17.2852 263.843 17.124 264.236 16.8018C264.628 16.4736 264.825 16.0342 264.825 15.4834C264.825 14.3291 264.025 13.752 262.425 13.752H261.256V17.2852ZM272.029 19.2979L268.856 13.9893C268.604 13.5908 268.478 13.2744 268.478 13.04C268.478 12.6885 268.625 12.3955 268.918 12.1611C269.211 11.9209 269.521 11.8008 269.849 11.8008C270.137 11.8008 270.374 11.8945 270.561 12.082C270.667 12.1875 270.819 12.4189 271.018 12.7764L272.917 16.1514C272.964 16.2393 273.022 16.3564 273.093 16.5029C273.163 16.6436 273.213 16.7402 273.242 16.793C273.277 16.8633 273.324 16.9629 273.383 17.0918H273.418C273.447 17.0273 273.491 16.9248 273.55 16.7842C273.673 16.4971 273.778 16.2744 273.866 16.1162L275.659 12.7852C275.858 12.4102 276.005 12.1758 276.098 12.082C276.286 11.8945 276.517 11.8008 276.793 11.8008C277.121 11.8008 277.417 11.9121 277.681 12.1348C277.95 12.3574 278.085 12.627 278.085 12.9434C278.085 13.043 278.064 13.1455 278.023 13.251C277.988 13.3564 277.956 13.4385 277.927 13.4971C277.897 13.5557 277.83 13.6729 277.724 13.8486L274.481 19.2979V22.9805C274.481 23.7012 274.071 24.0615 273.251 24.0615C272.436 24.0615 272.029 23.7012 272.029 22.9805V19.2979Z" fill="#302E2E"/>
</g>
<defs>
<linearGradient id="paint0_linear_7738_654" x1="8.20124" y1="1.55411" x2="23.9199" y2="32.0641" gradientUnits="userSpaceOnUse">
<stop stop-color="#33343B"/>
<stop offset="1" stop-color="#18191E"/>
</linearGradient>
<radialGradient id="paint1_radial_7738_654" cx="0" cy="0" r="1" gradientUnits="userSpaceOnUse" gradientTransform="translate(14.0702 3.0752) rotate(54.83) scale(24.6221 44.4796)">
<stop stop-color="white"/>
<stop offset="1" stop-color="white"/>
</radialGradient>
<radialGradient id="paint2_radial_7738_654" cx="0" cy="0" r="1" gradientUnits="userSpaceOnUse" gradientTransform="translate(14.1043 9.17589) rotate(53.368) scale(23.566 2.25756)">
<stop stop-color="white"/>
<stop offset="1" stop-color="white"/>
</radialGradient>
<clipPath id="clip0_7738_654">
<rect width="375" height="34" fill="white"/>
</clipPath>
</defs>
</svg>
