<svg width="20" height="20" viewBox="0 0 20 20" fill="none" xmlns="http://www.w3.org/2000/svg">
<path d="M5.625 15.625V16.875C5.625 17.2065 5.7567 17.5245 5.99112 17.7589C6.22554 17.9933 6.54348 18.125 6.875 18.125H15.625C15.9565 18.125 16.2745 17.9933 16.5089 17.7589C16.7433 17.5245 16.875 17.2065 16.875 16.875V6.25C16.875 5.91848 16.7433 5.60054 16.5089 5.36612C16.2745 5.1317 15.9565 5 15.625 5H14.375" stroke="#535358" stroke-width="1.2" stroke-linejoin="round"/>
<path d="M5.625 5.625H8.125M5.625 9.375H11.875M5.625 11.875H10.625" stroke="#535358" stroke-width="1.2" stroke-linecap="round" stroke-linejoin="round"/>
<path d="M11.875 6.25C12.2202 6.25 12.5 5.97018 12.5 5.625C12.5 5.27982 12.2202 5 11.875 5C11.5298 5 11.25 5.27982 11.25 5.625C11.25 5.97018 11.5298 6.25 11.875 6.25Z" fill="#535358"/>
<path d="M3.125 3.75C3.125 3.41848 3.2567 3.10054 3.49112 2.86612C3.72554 2.6317 4.04348 2.5 4.375 2.5H13.125C13.4565 2.5 13.7745 2.6317 14.0089 2.86612C14.2433 3.10054 14.375 3.41848 14.375 3.75V14.375C14.375 14.7065 14.2433 15.0245 14.0089 15.2589C13.7745 15.4933 13.4565 15.625 13.125 15.625H4.375C4.04348 15.625 3.72554 15.4933 3.49112 15.2589C3.2567 15.0245 3.125 14.7065 3.125 14.375V3.75Z" stroke="#535358" stroke-width="1.2" stroke-linejoin="round"/>
</svg>
